<svg width="150px" height="46px" viewBox="0 0 96 46" fill="none" xmlns="http://www.w3.org/2000/svg">
<path fill-rule="evenodd" clip-rule="evenodd" d="M56.848 2.82364L55.8928 5.79831L55.9144 19.5216H59.4744V21.3524H61.3848L63.2952 19.5216H66.6392L72.8472 13.5723V2.82364H56.8472H56.848ZM71.168 12.6646L68.5408 15.1823H64.2424L61.8544 17.4708V15.1823H58.28V4.42521H71.176V12.6653L71.168 12.6646ZM66.8696 7.40064H68.5496V11.9776H66.8696V7.40064ZM62.5712 7.40064H64.2512V11.9776H62.5712V7.40064ZM82.8696 28.6833V39.4396L76.6616 43.5589H72.848V41.7297L69.9824 43.5605H66.64V41.7297L64.4904 43.5605H58.2824L56.372 41.7297L55.8944 43.5605L50.4144 43.5467L48.2544 41.7297L48.0144 43.5605L41.8064 43.5467L41.5664 41.7297L39.8864 43.5467L30.3344 43.5605L28.424 42.6451V43.5605H23.176L17.4448 40.1273L13.8624 36.6942V21.5909H21.2656L24.848 25.024H41.088V21.5893H54.4608V25.0225H57.8048V26.8533L59.7152 25.0225H63.7752L67.3576 21.5893H74.9992V25.0225H79.0592L82.8696 28.6833ZM23.176 26.6248H19.832V23.1917H15.536V36.0073L18.1632 38.7535H23.1792V34.4049H19.8352V30.7433H23.1792V26.624L23.176 26.6248ZM41.0864 26.6248H36.788V34.4065H35.108V26.6248H31.048V34.4065H29.368V26.6248H24.848V38.7535H38.2208L41.0864 36.0073V26.6233V26.6248ZM46.8176 26.6248H42.76V38.7535H46.82V26.6248H46.8176ZM46.8176 23.1917H42.76V25.0225H46.82V23.1917H46.8176ZM56.1312 26.6248H52.7872V23.1917H48.4888V36.0073L51.116 38.7535H56.132V34.4049H52.788V30.7433H56.132V26.624L56.1312 26.6248ZM67.1152 26.6248H60.4288L57.8016 29.1425V36.008L60.6672 38.7542H67.1152V34.4057H62.3392V30.7433H67.1152V26.624V26.6248ZM81.2048 29.1425L78.3392 26.6248H73.3232V23.1917H68.7856V38.7535H73.3232V30.7433H76.6672V38.7535H81.2048V29.141V29.1425Z" fill="#FFFF"/>
</svg>
